PathFileType	4	(X/Y/Z)	C:/Users/beibeiliu/ov580/test_trc/User3\sequence.22_training_dense_left.trc
DataRate	CameraRate	NumFrames	NumMarkers	Units	OrigDataRate	OrigDataStartFrame	OrigNumFrames
120	120	23	19	mm	120	1	262
Frame#	Time	ThumbCMC			ThumbMCP			ThumbIP			ThumbTip			IndexMCP			IndexPIP			IndexTip			MiddleMCP			MiddlePIP			MiddleTip			RingMCP			RingPIP			RingTip			PinkyMCP			PinkyPIP			PinkyTip			BackHand1			BackHand2			BackHand3	
		X0	Y0	Z0	X1	Y1	Z1	X2	Y2	Z2	X3	Y3	Z3	X4	Y4	Z4	X5	Y5	Z5	X6	Y6	Z6	X7	Y7	Z7	X8	Y8	Z8	X9	Y9	Z9	X10	Y10	Z10	X11	Y11	Z11	X12	Y12	Z12	X13	Y13	Z13	X14	Y14	Z14	X15	Y15	Z15	X16	Y16	Z16	X17	Y17	Z17	X18	Y18	Z18	
0	0	-177.912	-10.2417	35.2567	-155.918	-14.8785	14.2255	-135.516	-17.5206	-9.33446	-128.149	-27.5631	-35.3009	-192.804	1.52199	-42.9682	-181.962	-0.970932	-71.1053	-168.452	-20.4048	-95.2712	-210.511	-4.21046	-52.8396	-202.374	-12.5473	-83.2757	-188.345	-41.0055	-100.984	-224.745	-16.7911	-49.7882	-220.629	-24.1274	-74.4814	-209.72	-47.0243	-92.3571	-243.193	-34.9196	-38.0788	-238.596	-42.7274	-58.2712	-223.385	-58.5631	-75.4505	-238.744	-8.89891	0.74069	-244.845	-11.0486	35.1033	-212.559	3.85566	20.4489	
1	0.00833333	-179.547	-11.951	32.139	-155.81	-14.5497	12.6183	-140.868	-19.7529	-10.6517	-129.364	-28.9717	-34.7984	-193.985	0.976801	-45.0929	-183.531	-3.62939	-75.8321	-170.873	-23.5303	-95.8219	-210.631	-4.22302	-55.9527	-203.627	-11.3459	-82.0333	-189.996	-41.9273	-101.526	-230.038	-18.5301	-49.4605	-220.084	-25.058	-75.0586	-207.246	-51.6459	-94.8095	-242.273	-35.0272	-34.6413	-236.81	-45.6505	-63.2116	-226.832	-60.1986	-77.2248	-241.405	-11.6317	3.45843	-244.731	-10.0582	31.8694	-211.85	2.84866	18.191	
2	0.0166667	-180.305	-12.519	33.8269	-158.191	-15.3456	14.9663	-137.205	-19.1155	-13.0144	-130.834	-28.2608	-30.1685	-189.537	3.09234	-48.2926	-184.52	-2.89608	-73.7749	-168.741	-19.0772	-92.9839	-213.991	-4.9427	-53.1895	-204.116	-12.5076	-82.8691	-188.297	-39.1101	-101.074	-226.167	-16.8929	-46.8493	-219.022	-28.3189	-78.3018	-208.651	-52.1047	-93.734	-243.961	-34.6184	-36.8115	-238.195	-45.4686	-61.6283	-225.139	-60.8322	-75.1989	-242.714	-11.1909	2.60693	-244.011	-11.3938	31.4193	-214.06	1.83139	20.6353	
3	0.025	-177.038	-10.4951	29.6953	-158.457	-15.5648	11.7598	-139.025	-19.4561	-11.1987	-129.216	-27.9169	-28.791	-192.296	1.64089	-47.9401	-180.228	-2.54826	-76.6112	-174.324	-20.6432	-92.7183	-212.129	-4.31842	-51.5999	-203.939	-13.7921	-84.6022	-190.585	-40.9678	-101.295	-225.635	-16.4929	-49.481	-220.488	-27.7915	-77.6631	-209.206	-46.9881	-92.0591	-240.039	-33.905	-34.3849	-235.347	-41.8743	-61.1407	-225.89	-59.6289	-77.5594	-240.461	-11.4481	-0.179913	-247.638	-12.7762	29.7651	-212.753	2.94661	17.7863	
4	0.0333333	-181.635	-13.0704	32.7312	-157.126	-15.0853	10.4541	-136.587	-18.7417	-9.12987	-126.819	-27.617	-30.6985	-190.331	3.27975	-44.3031	-183.213	-0.54414	-72.6789	-170.261	-18.1204	-92.9369	-209.811	-2.22827	-56.9071	-200.349	-14.5289	-85.5215	-188.568	-38.771	-100.851	-229.671	-19.0859	-49.4175	-218.92	-27.2064	-78.8916	-208.393	-51.4478	-93.2654	-244.208	-35.9738	-38.2935	-234.948	-41.15	-59.5022	-225.657	-59.8393	-77.6998	-241.999	-10.3571	0.34911	-242.83	-9.74586	28.9859	-213.197	1.66558	17.6365	
5	0.0416667	-180.705	-11.9719	29.1675	-158.377	-14.4954	11.6072	-138.809	-18.1123	-12.7351	-126.744	-26.8993	-31.5142	-189.594	3.77142	-42.6705	-184.698	-3.28349	-75.5714	-170.989	-17.6855	-92.4329	-213.063	-4.67114	-56.102	-201.982	-12.4243	-83.6946	-190.791	-40.8992	-100.439	-230.261	-18.869	-49.3932	-221.864	-28.4177	-78.5611	-211.61	-49.1993	-92.5494	-242.844	-33.8998	-37.2378	-236.587	-40.5375	-58.1908	-226.275	-60.825	-75.2603	-239.229	-9.32059	4.41451	-244.947	-11.4944	30.8897	-210.431	3.0883	19.6947	
6	0.05	-178.78	-10.7674	30.5877	-155.935	-13.675	11.8922	-140.173	-19.6954	-7.92784	-129.473	-26.5027	-29.5576	-192.601	2.32256	-47.5282	-181.897	-0.211559	-71.2168	-172.778	-18.3345	-92.3641	-213.571	-4.80355	-56.4065	-202.368	-10.93	-81.6005	-188.264	-41.1886	-101.614	-226.231	-16.6667	-46.2247	-221.77	-25.895	-75.9317	-206.78	-49.1128	-94.6585	-244.559	-35.0001	-38.011	-235.645	-44.3066	-62.7204	-225.052	-61.3255	-76.3611	-237.36	-10.6059	4.94834	-246.551	-11.9217	32.4901	-214.11	3.21088	20.9858	
7	0.0583333	-179.816	-10.6468	35.4523	-156.877	-13.8357	15.17	-136.247	-16.1923	-10.656	-125.703	-24.6126	-29.3233	-190.991	3.51041	-46.1582	-179.104	-2.13417	-75.0598	-172.606	-18.2603	-92.9178	-211.065	-3.79694	-55.9801	-202.113	-11.7573	-82.1925	-183.416	-41.9922	-101.653	-225.314	-15.5697	-47.6579	-222.843	-26.7342	-76.616	-210.054	-47.3848	-92.8759	-243.446	-33.0697	-40.5898	-236.012	-41.3884	-60.1765	-221.829	-62.258	-77.0615	-242.119	-11.6438	3.89776	-246.018	-11.0661	30.2383	-211.268	5.6645	20.3157	
8	0.0666667	-179.702	-10.4206	32.6659	-157.6	-12.7343	12.51	-140.402	-16.0351	-9.13347	-127.994	-22.9923	-32.2448	-190.584	4.12696	-43.6104	-179.668	-1.05565	-75.7987	-165.089	-18.5246	-94.4026	-210.588	-2.62958	-52.5051	-202.507	-13.4106	-85.2831	-185.457	-38.8411	-101.46	-226.282	-15.6376	-49.7571	-221.511	-25.0372	-76.6446	-204.439	-46.4313	-93.9835	-243.718	-33.7761	-36.3239	-235.574	-40.075	-59.65	-222.808	-59.8229	-77.5404	-239.096	-10.9392	2.15772	-246.73	-12.2097	32.6005	-212.385	3.05055	20.7549	
9	0.075	-182.746	-10.125	34.786	-154.367	-9.81341	15.6878	-135.837	-12.377	-4.26628	-128.021	-21.9685	-25.4476	-188.354	5.31744	-43.753	-181.591	2.47679	-70.772	-167.403	-12.6711	-93.4363	-208.14	-1.25215	-54.1931	-198.196	-8.36985	-83.071	-183.083	-33.9972	-101.677	-222.022	-13.9411	-50.1133	-221.098	-23.632	-75.8906	-204.155	-44.4295	-93.7622	-238.052	-32.7971	-34.6407	-232.707	-41.5618	-62.0168	-219.465	-56.7169	-77.111	-241.785	-12.1984	1.75507	-246.905	-11.4078	27.8106	-212.605	4.14599	21.6012	
10	0.0833333	-182.423	-6.1612	34.6617	-157.371	-7.16307	18.6446	-136.181	-9.55092	-2.33251	-121.824	-15.7891	-22.0655	-189.525	5.5216	-43.607	-177.097	6.83965	-68.7915	-163.981	-6.89598	-93.2883	-208.465	-2.01115	-55.4271	-198.025	-7.29567	-81.2528	-183.641	-30.9402	-103.099	-225.298	-19.5026	-49.5568	-217.017	-24.0941	-75.7546	-198.241	-42.3909	-95.8089	-235.142	-35.4887	-35.4761	-229.005	-41.8709	-61.8898	-215.673	-55.6794	-77.924	-241.677	-14.6675	1.04903	-246.812	-14.4616	25.6688	-216.702	3.78233	19.768	
11	0.0916667	-188.465	-4.98785	37.3949	-157.791	0.325406	24.5695	-134.902	0.483597	5.96626	-121.516	-6.70281	-12.1891	-188.9	9.54632	-42.3241	-175.733	12.6443	-68.4044	-163.176	5.97275	-88.2938	-208.433	-3.60395	-52.4475	-197.941	-7.58084	-83.1848	-176.123	-25.6879	-106.529	-221.301	-22.7316	-47.7867	-210.392	-24.4275	-74.2966	-195.722	-39.9118	-95.0948	-228.239	-38.5973	-40.6586	-222.402	-45.1392	-59.1236	-208.977	-59.2053	-80.6473	-241.727	-17.9909	-2.91481	-251.128	-19.8469	24.6169	-216.768	3.30404	17.6751	
12	0.1	-191.876	1.36522	32.7684	-163.91	3.7151	23.7178	-135.656	10.0105	12.0893	-116.944	7.91135	-2.33813	-190.161	13.3076	-43.052	-176.283	20.1218	-65.6512	-162.449	17.0551	-85.1521	-205.9	-3.76523	-54.7819	-194.13	-7.45452	-84.0955	-174.372	-18.3929	-105.117	-217.788	-27.593	-50.4671	-202.888	-26.9041	-76.7117	-186.558	-38.9681	-95.7937	-224.265	-48.0994	-37.8138	-215.09	-52.1324	-58.4087	-197.958	-60.2871	-80.4456	-235.742	-22.0876	-5.32733	-249.64	-24.7229	24.4531	-223.15	0.706577	17.0498	
13	0.108333	-196.091	5.67577	36.5412	-164.568	13.5304	26.3755	-138.183	18.6956	13.9938	-117.452	16.2009	2.62959	-195.498	10.8384	-42.0431	-182.354	21.5388	-64.5191	-162.067	22.7473	-87.4464	-206.772	-6.11702	-57.6953	-191.951	-5.73363	-83.4926	-170.467	-12.1208	-104.078	-212	-27.9801	-52.0435	-201.377	-29.8563	-73.6372	-181.626	-36.1483	-93.8799	-215.272	-48.1062	-40.8595	-203.41	-56.4575	-61.3808	-188.329	-60.3931	-77.5913	-234.937	-27.3951	-6.97697	-250.074	-28.829	19.3908	-229.93	0.555976	15.8276	
14	0.116667	-201.459	10.937	35.3871	-171.984	17.4646	29.5419	-143.645	24.1976	18.8179	-123.201	21.0566	6.23033	-198.644	12.7885	-45.4882	-185.405	22.0086	-66.6921	-165.086	25.8224	-85.8019	-207.516	-6.29953	-54.3006	-192.729	-4.00566	-81.5799	-166.248	-10.8102	-106.379	-210.543	-28.7777	-50.5521	-198.063	-30.0602	-74.9813	-178.384	-32.9806	-91.7236	-212.098	-53.5393	-40.6306	-201.188	-57.0893	-56.7163	-180.995	-61.4053	-77.4955	-238.354	-33.7632	-5.94414	-247.897	-33.3662	18.9139	-233.396	-2.50577	11.7624	
15	0.125	-206.74	13.406	34.3631	-175.503	21.1244	26.9232	-146.167	29.2738	15.5241	-126.647	25.2717	9.29351	-202.693	16.5003	-44.2197	-187.479	27.8821	-66.454	-165.5	27.7539	-87.6622	-210.837	-7.86543	-54.6757	-192.107	-0.498351	-83.7352	-168.091	-3.31717	-102.526	-211.511	-29.1863	-49.2168	-197.361	-26.9076	-72.8765	-175.082	-31.1882	-91.0229	-209.631	-52.9328	-38.7698	-195.697	-52.5297	-56.0435	-175.892	-53.9813	-73.3423	-235.98	-32.4921	-8.27144	-249.935	-35.4939	18.4593	-237.931	-0.161798	8.00406	
16	0.133333	-212.231	15.9288	34.0104	-177.09	25.7539	24.5882	-151.801	30.4035	16.3617	-128.263	26.4017	3.43567	-207.044	15.9059	-44.4157	-188.114	24.9228	-70.29	-167.503	29.0437	-84.6916	-211.7	-8.79383	-54.5687	-194.301	-3.00454	-83.2614	-166.787	-1.45585	-100.204	-209.887	-24.8691	-50.304	-194.937	-27.0015	-75.7072	-167.893	-27.3461	-91.3012	-206.454	-49.3477	-39.0371	-193.153	-49.9974	-55.6295	-171.906	-49.5474	-69.1539	-238.434	-34.5015	-5.37498	-250.811	-35.9728	15.5441	-241.395	-3.02009	5.86956	
17	0.141667	-214.896	18.6703	31.5969	-183.888	25.7294	26.8437	-155.811	32.3218	16.7399	-131.713	28.1602	4.1722	-210.712	18.7921	-44.626	-190.339	24.6486	-71.1131	-167.675	28.9611	-82.0859	-212.326	-5.9445	-59.4143	-194.607	0.697663	-81.8789	-160.27	0.111352	-97.8548	-210.871	-26.8931	-51.8328	-195.185	-25.4901	-73.9192	-165.179	-19.3662	-84.2846	-207.01	-46.3976	-36.0254	-189.079	-47.7597	-57.2957	-169.512	-45.4139	-65.7438	-238.286	-33.0299	-8.36165	-250.384	-39.9082	14.9514	-244.593	-5.83471	6.76996	
18	0.15	-217.544	20.0047	30.3205	-187.773	26.2822	25.6908	-155.723	34.6531	13.1119	-137.924	24.6125	1.56358	-213.044	16.8176	-44.6516	-193.97	25.6792	-70.183	-166.831	25.8271	-79.9532	-215.348	-4.725	-56.3213	-191.403	-0.862709	-83.4368	-162.396	1.57667	-90.4981	-211.903	-25.5929	-49.3892	-190.888	-24.3221	-73.7549	-159.058	-18.6238	-79.1125	-206.65	-45.6902	-35.7385	-188.164	-41.4944	-56.044	-167.427	-37.9657	-62.7938	-239.473	-32.6964	-5.95062	-253.448	-40.9484	17.6911	-245.399	-7.09872	8.72381	
19	0.158333	-219.58	17.1541	31.3064	-187.632	30.0947	26.1273	-160.257	34.2856	13.9302	-137.85	26.82	1.39254	-214.335	14.9359	-49.4891	-196.688	23.4078	-68.824	-166.209	24.9143	-76.0583	-214.899	-4.3471	-59.2206	-192.171	4.37237	-79.4351	-158.496	2.91918	-83.3483	-210.567	-25.563	-52.8833	-191.737	-20.7102	-70.1224	-157.936	-16.4023	-72.9711	-208.091	-46.1603	-34.8014	-189.71	-42.6242	-54.089	-163.657	-37.4908	-58.4568	-241.877	-33.2088	-8.9148	-252.509	-39.4993	21.2341	-248.666	-1.61962	10.5288	
20	0.166667	-221.554	15.4193	32.7939	-186.725	29.5941	23.2369	-158.904	34.5813	10.9335	-137.351	23.7314	-1.65091	-216.14	14.8532	-45.1335	-192.925	21.3966	-70.7585	-162.968	23.7785	-74.4189	-215.019	-6.64137	-56.5563	-191.875	4.21942	-78.3333	-154.339	2.97118	-78.1866	-211.215	-25.0044	-50.0279	-186.049	-21.0899	-71.6877	-158.275	-15.6213	-68.9553	-207.743	-43.9538	-35.815	-188.244	-40.2805	-53.0359	-163.556	-32.6192	-55.9742	-240.712	-33.2765	-7.26315	-252.246	-38.4046	17.2037	-248.239	-4.81573	6.28434	
21	0.175	-220.151	17.5004	29.6802	-189.735	26.1966	25.9463	-159.786	32.7221	11.9674	-141.348	21.5922	1.45366	-214.74	15.8426	-47.2592	-194.325	24.4554	-68.8651	-165.384	25.5353	-72.9254	-214.521	-1.0526	-59.1404	-188.088	1.50568	-78.374	-154.429	2.57779	-75.0776	-211.628	-23.9911	-49.1755	-186.023	-19.2012	-70.096	-156.98	-18.2788	-67.3314	-207.145	-40.7499	-38.2227	-186.042	-36.3059	-53.4484	-163.111	-34.092	-54.3262	-241.821	-32.6245	-8.72413	-254.275	-40.1331	19.7473	-248.718	-4.2293	8.55156	
22	0.183333	-220.41	15.5404	32.1136	-187.091	24.3961	20.4533	-158.748	30.3555	9.16089	-137.383	18.5237	-4.64592	-216.359	17.0639	-44.3188	-193.94	22.0618	-68.2763	-165.489	22.2952	-70.677	-214.199	-2.71145	-57.0208	-190.747	-2.71689	-76.5523	-150.327	-2.25034	-71.8628	-211.729	-22.0842	-47.3873	-187.621	-22.8875	-69.0157	-157.405	-17.1111	-65.7357	-207.691	-44.2705	-38.3442	-185.144	-39.1395	-52.8533	-161.85	-36.9436	-55.3059	-243.293	-36.0318	-9.01883	-257.509	-41.1765	19.4913	-250.548	-3.58212	8.56372	
